<mxfile host="app.diagrams.net" agent="Mozilla/5.0 (Windows NT 10.0; Win64; x64) AppleWebKit/537.36 (KHTML, like Gecko) Chrome/140.0.0.0 Safari/537.36" version="28.2.3">
  <diagram id="C5RBs43oDa-KdzZeNtuy" name="Page-1">
    <mxGraphModel dx="1489" dy="753" grid="1" gridSize="10" guides="1" tooltips="1" connect="1" arrows="1" fold="1" page="1" pageScale="1" pageWidth="827" pageHeight="1169" math="0" shadow="0">
      <root>
        <mxCell id="WIyWlLk6GJQsqaUBKTNV-0" />
        <mxCell id="WIyWlLk6GJQsqaUBKTNV-1" parent="WIyWlLk6GJQsqaUBKTNV-0" />
        <mxCell id="ZmpBna1umY-bwQ5UeYMQ-22" value="" style="rounded=1;whiteSpace=wrap;html=1;" vertex="1" parent="WIyWlLk6GJQsqaUBKTNV-1">
          <mxGeometry x="500" y="260" width="140" height="80" as="geometry" />
        </mxCell>
        <mxCell id="ZmpBna1umY-bwQ5UeYMQ-10" value="" style="edgeStyle=orthogonalEdgeStyle;rounded=0;orthogonalLoop=1;jettySize=auto;html=1;" edge="1" parent="WIyWlLk6GJQsqaUBKTNV-1" target="ZmpBna1umY-bwQ5UeYMQ-7">
          <mxGeometry relative="1" as="geometry">
            <mxPoint x="640" y="300" as="sourcePoint" />
          </mxGeometry>
        </mxCell>
        <mxCell id="ZmpBna1umY-bwQ5UeYMQ-11" style="edgeStyle=orthogonalEdgeStyle;rounded=0;orthogonalLoop=1;jettySize=auto;html=1;entryX=0;entryY=0.5;entryDx=0;entryDy=0;" edge="1" parent="WIyWlLk6GJQsqaUBKTNV-1" source="ZmpBna1umY-bwQ5UeYMQ-0" target="ZmpBna1umY-bwQ5UeYMQ-6">
          <mxGeometry relative="1" as="geometry" />
        </mxCell>
        <mxCell id="ZmpBna1umY-bwQ5UeYMQ-12" style="edgeStyle=orthogonalEdgeStyle;rounded=0;orthogonalLoop=1;jettySize=auto;html=1;entryX=0;entryY=0.5;entryDx=0;entryDy=0;" edge="1" parent="WIyWlLk6GJQsqaUBKTNV-1" source="ZmpBna1umY-bwQ5UeYMQ-0" target="ZmpBna1umY-bwQ5UeYMQ-8">
          <mxGeometry relative="1" as="geometry" />
        </mxCell>
        <mxCell id="ZmpBna1umY-bwQ5UeYMQ-0" value="Phòng ban&amp;nbsp;" style="rounded=1;whiteSpace=wrap;html=1;" vertex="1" parent="WIyWlLk6GJQsqaUBKTNV-1">
          <mxGeometry x="510" y="270" width="120" height="60" as="geometry" />
        </mxCell>
        <mxCell id="ZmpBna1umY-bwQ5UeYMQ-1" value="Đề án" style="rounded=1;whiteSpace=wrap;html=1;" vertex="1" parent="WIyWlLk6GJQsqaUBKTNV-1">
          <mxGeometry x="340" y="510" width="120" height="60" as="geometry" />
        </mxCell>
        <mxCell id="ZmpBna1umY-bwQ5UeYMQ-15" style="edgeStyle=orthogonalEdgeStyle;rounded=0;orthogonalLoop=1;jettySize=auto;html=1;" edge="1" parent="WIyWlLk6GJQsqaUBKTNV-1" source="ZmpBna1umY-bwQ5UeYMQ-2" target="ZmpBna1umY-bwQ5UeYMQ-14">
          <mxGeometry relative="1" as="geometry" />
        </mxCell>
        <mxCell id="ZmpBna1umY-bwQ5UeYMQ-2" value="&lt;span style=&quot;font-family: &amp;quot;Times New Roman&amp;quot;, serif; font-size: 18.6667px;&quot;&gt;Nhân&lt;/span&gt;&lt;br style=&quot;font-family: &amp;quot;Times New Roman&amp;quot;, serif; font-size: 18.6667px;&quot;&gt;&lt;span style=&quot;font-family: &amp;quot;Times New Roman&amp;quot;, serif; font-size: 18.6667px;&quot;&gt;viên&lt;/span&gt;" style="rounded=1;whiteSpace=wrap;html=1;" vertex="1" parent="WIyWlLk6GJQsqaUBKTNV-1">
          <mxGeometry x="110" y="270" width="120" height="60" as="geometry" />
        </mxCell>
        <mxCell id="ZmpBna1umY-bwQ5UeYMQ-6" value="&lt;u&gt;Tên phòng&amp;nbsp;&lt;/u&gt;" style="ellipse;whiteSpace=wrap;html=1;" vertex="1" parent="WIyWlLk6GJQsqaUBKTNV-1">
          <mxGeometry x="690" y="160" width="80" height="60" as="geometry" />
        </mxCell>
        <mxCell id="ZmpBna1umY-bwQ5UeYMQ-7" value="&lt;i&gt;&lt;u&gt;Mã số&lt;/u&gt;&lt;/i&gt;" style="ellipse;whiteSpace=wrap;html=1;" vertex="1" parent="WIyWlLk6GJQsqaUBKTNV-1">
          <mxGeometry x="690" y="270" width="80" height="60" as="geometry" />
        </mxCell>
        <mxCell id="ZmpBna1umY-bwQ5UeYMQ-8" value="&lt;i&gt;&lt;u&gt;Nhân viên&lt;/u&gt;&lt;/i&gt;" style="ellipse;whiteSpace=wrap;html=1;" vertex="1" parent="WIyWlLk6GJQsqaUBKTNV-1">
          <mxGeometry x="690" y="360" width="80" height="60" as="geometry" />
        </mxCell>
        <mxCell id="ZmpBna1umY-bwQ5UeYMQ-16" style="edgeStyle=orthogonalEdgeStyle;rounded=0;orthogonalLoop=1;jettySize=auto;html=1;" edge="1" parent="WIyWlLk6GJQsqaUBKTNV-1" source="ZmpBna1umY-bwQ5UeYMQ-14">
          <mxGeometry relative="1" as="geometry">
            <mxPoint x="500" y="300" as="targetPoint" />
          </mxGeometry>
        </mxCell>
        <mxCell id="ZmpBna1umY-bwQ5UeYMQ-17" style="edgeStyle=orthogonalEdgeStyle;rounded=0;orthogonalLoop=1;jettySize=auto;html=1;" edge="1" parent="WIyWlLk6GJQsqaUBKTNV-1" source="ZmpBna1umY-bwQ5UeYMQ-14">
          <mxGeometry relative="1" as="geometry">
            <mxPoint x="360" y="219.9999999999999" as="targetPoint" />
          </mxGeometry>
        </mxCell>
        <mxCell id="ZmpBna1umY-bwQ5UeYMQ-14" value="Nhận chức" style="rhombus;whiteSpace=wrap;html=1;" vertex="1" parent="WIyWlLk6GJQsqaUBKTNV-1">
          <mxGeometry x="320" y="260" width="80" height="80" as="geometry" />
        </mxCell>
        <mxCell id="ZmpBna1umY-bwQ5UeYMQ-20" value="Ngày nhận chức trưởng phòng" style="ellipse;whiteSpace=wrap;html=1;" vertex="1" parent="WIyWlLk6GJQsqaUBKTNV-1">
          <mxGeometry x="320" y="160" width="80" height="60" as="geometry" />
        </mxCell>
        <mxCell id="ZmpBna1umY-bwQ5UeYMQ-21" value="" style="rounded=1;whiteSpace=wrap;html=1;" vertex="1" parent="WIyWlLk6GJQsqaUBKTNV-1">
          <mxGeometry x="310" y="370" width="120" height="60" as="geometry" />
        </mxCell>
        <mxCell id="ZmpBna1umY-bwQ5UeYMQ-26" style="edgeStyle=orthogonalEdgeStyle;rounded=0;orthogonalLoop=1;jettySize=auto;html=1;" edge="1" parent="WIyWlLk6GJQsqaUBKTNV-1" source="ZmpBna1umY-bwQ5UeYMQ-25">
          <mxGeometry relative="1" as="geometry">
            <mxPoint x="570" y="149.9999999999999" as="targetPoint" />
            <Array as="points">
              <mxPoint x="570" y="120" />
            </Array>
          </mxGeometry>
        </mxCell>
        <mxCell id="ZmpBna1umY-bwQ5UeYMQ-25" value="Công ty" style="rounded=1;whiteSpace=wrap;html=1;" vertex="1" parent="WIyWlLk6GJQsqaUBKTNV-1">
          <mxGeometry x="510" y="40" width="120" height="60" as="geometry" />
        </mxCell>
        <mxCell id="ZmpBna1umY-bwQ5UeYMQ-28" value="" style="edgeStyle=orthogonalEdgeStyle;rounded=0;orthogonalLoop=1;jettySize=auto;html=1;" edge="1" parent="WIyWlLk6GJQsqaUBKTNV-1" source="ZmpBna1umY-bwQ5UeYMQ-27" target="ZmpBna1umY-bwQ5UeYMQ-0">
          <mxGeometry relative="1" as="geometry" />
        </mxCell>
        <mxCell id="ZmpBna1umY-bwQ5UeYMQ-27" value="Tổ chức" style="rhombus;whiteSpace=wrap;html=1;" vertex="1" parent="WIyWlLk6GJQsqaUBKTNV-1">
          <mxGeometry x="530" y="150" width="80" height="80" as="geometry" />
        </mxCell>
        <mxCell id="ZmpBna1umY-bwQ5UeYMQ-29" value="" style="edgeStyle=orthogonalEdgeStyle;rounded=0;orthogonalLoop=1;jettySize=auto;labelBorderColor=none;textShadow=0;convertToSvg=0;html=1;" edge="1" parent="WIyWlLk6GJQsqaUBKTNV-1" source="ZmpBna1umY-bwQ5UeYMQ-27" target="ZmpBna1umY-bwQ5UeYMQ-25">
          <mxGeometry relative="1" as="geometry" />
        </mxCell>
      </root>
    </mxGraphModel>
  </diagram>
</mxfile>
